<?xml version="1.0" encoding="UTF-8" standalone="no"?>
<!-- Created with Inkscape (http://www.inkscape.org/) -->

<svg
   width="210mm"
   height="297mm"
   viewBox="0 0 210 297"
   version="1.1"
   id="svg5"
   xml:space="preserve"
   sodipodi:docname="drawing-7.svg"
   inkscape:version="1.2 (dc2aedaf03, 2022-05-15)"
   xmlns:inkscape="http://www.inkscape.org/namespaces/inkscape"
   xmlns:sodipodi="http://sodipodi.sourceforge.net/DTD/sodipodi-0.dtd"
   xmlns="http://www.w3.org/2000/svg"
   xmlns:svg="http://www.w3.org/2000/svg"><sodipodi:namedview
     id="namedview7"
     pagecolor="#505050"
     bordercolor="#eeeeee"
     borderopacity="1"
     inkscape:showpageshadow="0"
     inkscape:pageopacity="0"
     inkscape:pagecheckerboard="0"
     inkscape:deskcolor="#505050"
     inkscape:document-units="mm"
     showgrid="false"
     inkscape:zoom="1.1144571"
     inkscape:cx="-91.524387"
     inkscape:cy="489.47601"
     inkscape:window-width="3840"
     inkscape:window-height="2066"
     inkscape:window-x="-11"
     inkscape:window-y="-11"
     inkscape:window-maximized="1"
     inkscape:current-layer="layer1" /><defs
     id="defs2" /><g
     inkscape:label="Layer 1"
     inkscape:groupmode="layer"
     id="layer1"><path
       style="fill:none;stroke:#2a2829;stroke-width:0.264583"
       d="m 37.829781,146.47629 c 1.668462,-3.74624 1.929077,-8.18886 4.401873,-11.64167 2.20636,-3.08054 7.076546,-5.45333 7.476596,-9.525 0.169598,-1.7272 0.01588,-3.21231 -0.70829,-4.7625 -1.664758,-3.56394 -4.177771,-7.25911 -4.9657,-11.1125 -0.1778,-0.86889 -0.3175,-1.51315 -0.356129,-2.38125 -0.05715,-1.28984 0.177271,-1.96797 0.246327,-3.175 0.251883,-4.391026 4.580202,-9.443774 7.708636,-12.379062 1.86981,-1.754452 4.767791,-2.207683 7.098771,-3.078956 6.486525,-2.425171 13.398764,-3.765815 20.108333,-4.722019 1.202267,-0.171185 1.538288,-0.106891 2.645834,-0.241564 1.091671,-0.132821 2.019035,-0.535517 3.175,-0.811477 1.010708,-0.2413 1.631421,-0.19738 2.645833,-0.198173 1.166548,-7.94e-4 2.075656,-0.05583 3.175,-0.29554 1.51765,-0.330729 2.96254,-0.497681 4.497917,-0.49821 1.298839,-5.3e-4 2.973652,-0.0021 4.233333,0 0.628915,0.0011 1.179515,-0.0037 1.852085,0.07567 2.17487,0.256382 3.9198,0.132292 6.35,0.192882 1.97273,0.04895 4.10845,0.742421 6.08542,1.075266 0.7739,0.13044 1.32265,0.220398 2.11666,0.239713 2.03015,0.04974 3.75232,-0.13335 5.55625,0.07964 0.57574,0.06773 0.99007,0.1524 1.5875,0.178594 0.70909,0.03096 1.1266,-0.01111 1.85209,0.02064 0.80803,0.03545 1.35307,0.149489 2.11666,0.254264 1.19539,0.164042 2.46777,0.326232 3.70417,0.758032 5.80602,2.027502 9.66973,6.495256 14.81667,9.535848 4.75324,2.807758 10.87014,2.717006 15.61041,5.5626 3.79439,2.277792 6.19893,7.772392 7.21043,11.924772 0.77867,3.19775 0.72707,6.42355 0.72707,9.78958 0,1.90103 0.0749,3.84678 -0.1524,5.55625 -0.46011,3.46207 -1.3081,7.50067 -2.83977,10.84792 -2.28626,4.99665 -5.67637,9.24401 -8.30236,14.02291 -1.97961,3.6023 -4.38441,6.61538 -6.54923,10.05417 -0.90144,1.43219 -0.53314,3.22501 -1.77456,4.35795 -1.27688,1.16496 -3.08637,1.76715 -4.72334,1.97961 -2.16721,0.28126 -4.34208,1.45389 -6.08542,2.79824 -4.11374,3.17235 -6.43917,8.37141 -11.37708,10.57169 -1.74334,0.77682 -3.4298,0.67522 -5.29167,1.1639 -6.03515,1.58459 -12.48384,2.74082 -18.52083,3.22845 -0.8644,0.0698 -1.51395,0.21669 -2.38125,0.23786 -2.36829,0.0582 -5.623194,-0.24739 -7.937505,0.0833 -4.755621,0.67945 -10.450248,2.85247 -15.345833,3.06811 -2.974446,0.13097 -5.958682,-0.36354 -8.731251,-0.69056 -0.742685,-0.0878 -1.329531,-0.0669 -2.116666,-0.0767 -3.976952,-0.0487 -7.909984,-0.90461 -11.90625,-1.56528 -2.225146,-0.36777 -4.481248,-0.45296 -6.346032,-1.81742 -1.825889,-1.33615 -2.841096,-3.66951 -3.890962,-5.61208 -2.72124,-5.03422 -2.463007,-10.59735 -2.463007,-16.13958 0,-7.55015 -0.833966,-15.62391 1.608402,-22.75417 1.1684,-3.41153 2.973388,-6.75772 4.926278,-9.78958 1.11416,-1.72958 2.650331,-3.37767 3.426089,-5.29167 1.40335,-3.46128 -1.190625,-5.61842 -2.079096,-8.73125 -0.774435,-2.71277 -2.137039,-7.21307 -1.673225,-9.78958 0.511705,-2.84348 2.958307,-7.254873 4.952736,-9.524998 6.665648,-7.586134 14.611086,-9.158552 23.763817,-11.476038 4.440767,-1.124479 8.679656,-2.28256 13.229167,-2.282296 0.866775,0 1.583531,-0.01852 2.38125,0.07567 0.886883,0.104511 1.662906,0.187325 2.645833,0.188913 1.692011,0.0026 3.621352,0 5.291665,0 0.77338,0 1.36366,-0.02699 2.11667,0.04498 2.04655,0.195527 3.97854,0.745331 6.08542,0.748771 1.73513,0.0029 3.62849,0.148431 5.29166,0.309562 0.60166,0.05821 0.99034,0.144198 1.5875,0.199761 0.91387,0.08493 1.74837,0.200289 2.64584,0.349779 2.83395,0.472016 5.67213,1.428485 8.46666,1.821127 0.79481,0.111919 1.2954,0.204787 2.11667,0.226219 1.37054,0.03598 2.80379,0.103187 4.23333,0.65696 5.05063,1.956329 8.34708,6.546586 12.7,9.5504 2.59477,1.7907 6.20157,2.9501 9.26042,3.77745 2.14656,0.58076 3.89784,0.37307 5.38771,2.42438 2.28997,3.15304 3.93568,8.1616 4.66619,11.90519 0.37439,1.9185 0.26485,3.49435 0.26485,5.55625 v 4.49792 c 0,0.97949 0.023,1.54596 -0.004,2.64583 -0.0482,1.96136 -0.7284,3.66977 -1.31207,5.55625 -2.76833,8.94292 -7.67186,14.93335 -13.68584,21.96042 -1.91293,2.2352 -2.74134,5.67928 -4.85642,7.61656 -2.79744,2.56223 -7.19005,3.547 -10.3042,5.78115 -3.63511,2.60799 -4.95194,7.21624 -9.26042,8.97175 -3.49065,1.4224 -7.77319,2.3241 -11.37708,2.83766 -0.67337,0.096 -1.14591,0.1643 -1.85208,0.18997 -1.32742,0.0484 -2.73447,0.19553 -3.96875,0.34316 -0.66781,0.0796 -1.16602,0.16801 -1.85209,0.18495 -0.8165,0.0204 -1.35546,-0.0103 -2.11666,0.0796 -0.77629,0.0915 -1.27556,0.17647 -2.11667,0.18785 -0.66225,0.009 -1.15544,-0.006 -1.85208,0.0767 -0.77021,0.0907 -1.270798,0.1778 -2.116671,0.18785 -0.919428,0.0111 -1.539082,-0.023 -2.38125,0.0767 -1.095375,0.12965 -2.263775,0.34396 -3.439584,0.42995 -1.146175,0.0841 -1.447535,0.0704 -2.645833,0.26697 -1.855259,0.30427 -3.949436,0.77919 -5.820834,1.24486 -2.325687,0.57864 -4.760118,0.68289 -7.14375,0.62442 -1.214437,-0.0296 -1.878541,-0.24421 -3.175,-0.25956 -1.957387,-0.0233 -3.513402,-0.16113 -5.55625,-0.27517 -2.031735,-0.11324 -4.217723,-0.48842 -6.085417,-0.70855 -0.820473,-0.0968 -1.485106,-0.0659 -2.38125,-0.0767 -3.654689,-0.0437 -8.164512,-1.37848 -10.414529,-4.49792 -1.809485,-2.50877 -2.216679,-5.83088 -3.042179,-8.73019 -0.815975,-2.86676 -1.852613,-5.75574 -1.888067,-8.73125 -0.04921,-4.13226 0.640556,-8.15102 1.738577,-12.17083 0.614098,-2.24817 0.684477,-4.72281 1.068917,-6.87917 0.445823,-2.50031 1.216554,-5.21467 2.011362,-7.67291 1.203855,-3.72375 4.312973,-6.8834 5.702036,-10.31875 0.894556,-2.21298 -1.740165,-6.6429 -2.089679,-8.99584 -0.170921,-1.15014 -0.433917,-2.02221 -0.484452,-3.175 -0.08758,-2.00342 0.377031,-3.35624 0.512233,-5.29166 0.358775,-5.12604 5.449094,-10.492583 9.047427,-13.97397 3.193521,-3.089805 9.327092,-4.120886 13.448771,-5.173927 2.070894,-0.529167 3.571346,-0.207169 5.820834,-0.479955 1.510506,-0.183356 2.716212,-0.878152 4.233333,-1.151202 3.481388,-0.626798 8.564827,-0.124354 12.170834,-0.123031 0.690562,2.65e-4 1.191154,-0.01799 1.852083,0.04498 2.502958,0.238125 5.437718,0.982663 7.937498,1.012296 1.15994,0.01376 1.86743,-0.05133 2.91042,0.07673 3.41392,0.419365 7.3025,1.692275 10.58333,1.772444 1.59888,0.03916 2.34104,-0.08731 3.70417,0.04921 1.53696,0.153459 3.24829,0.63844 4.7625,0.741892 1.62163,0.110861 3.45361,0.24474 5.02708,0.771261 4.91861,1.646502 9.03208,7.252229 12.96459,10.489672 3.74094,3.07975 7.84992,4.39711 10.98973,8.32485 2.31166,2.89136 3.57902,7.02759 3.56209,10.58333 -0.005,1.02923 -0.12859,1.6928 -0.21934,2.64583 -0.0945,0.99245 -0.0222,1.55681 -0.0489,2.64584 -0.0923,3.77666 -1.80684,6.67543 -3.35386,10.05416 -0.94721,2.06852 -1.49252,4.3389 -2.54767,6.35 -2.47518,4.71726 -5.68934,8.40026 -8.99478,12.45897 -1.95501,2.40083 -2.21509,5.58165 -4.7027,7.85759 -2.64742,2.422 -6.63364,2.70775 -9.50119,4.79955 -4.27937,3.12181 -7.50888,8.54551 -12.7,10.32668 -2.5318,0.86863 -5.17472,1.05172 -7.67292,1.28932 -0.77311,0.0735 -1.28852,0.019 -2.11666,0.0553 -1.02183,0.045 -1.62799,0.22542 -2.64584,0.25029 -3.24009,0.0794 -6.36693,0.16087 -9.524998,0.60881 -4.250002,0.60245 -8.446294,0.5289 -12.964584,0.7284 -2.799556,0.12382 -5.643827,1.03875 -8.466666,1.04775 -1.325034,0.004 -2.285471,-0.20347 -3.439584,-0.254 -0.983721,-0.0429 -1.585383,-0.0103 -2.645833,-0.0103 -5.612871,0 -15.047913,-0.67125 -18.757636,-5.84465 -2.086769,-2.91015 -2.553494,-8.76538 -2.676525,-12.14702 -0.02514,-0.68924 -0.103717,-1.15358 -0.186002,-1.85208 -0.0799,-0.67681 -0.07567,-1.12766 -0.07567,-1.85209 0,-0.64532 -0.004,-1.17819 0.07567,-1.85208 0.106892,-0.90752 0.162983,-1.37583 0.192617,-2.38125 0.198173,-6.75746 2.056871,-14.69946 4.020343,-21.16667 0.888471,-2.92655 4.351338,-4.71937 5.308336,-7.40833 0.919162,-2.58233 -2.031471,-7.38346 -2.683404,-10.05417 -1.404144,-5.75125 0.235214,-10.5529 4.050506,-15.08125 4.465373,-5.300128 9.255125,-7.97533 15.758848,-9.82662 2.140215,-0.609335 4.433094,-1.363133 6.614584,-1.570302 2.258748,-0.214577 5.024173,-1.045898 7.14375,-1.257829 0.759089,-0.07594 1.33641,-0.04524 2.116666,-0.04524 2.139951,-2.65e-4 4.711701,-2.65e-4 6.879167,0 0.918369,0 1.534319,-0.0426 2.381255,0.07937 2.13174,0.307181 4.27672,0.929481 6.35,0.978958 2.5773,0.06138 4.78948,1.115748 7.40833,1.299369 2.48576,0.174096 5.012,-0.297921 7.40833,0.329406 1.54914,0.405607 3.19167,0.885561 4.7625,0.993511 0.67548,0.0463 1.13692,-0.0019 1.85209,0.0471 0.69797,0.04789 1.18268,0.152664 1.85208,0.227806 1.86584,0.20955 4.10474,0.476779 5.82083,1.334029 5.42528,2.710656 9.49696,8.372742 13.57022,12.677512 1.6293,1.72165 3.86582,2.69373 5.42343,4.52279 1.77032,2.07857 2.20636,4.38203 2.51301,6.8789 0.0982,0.8001 0.19473,1.28799 0.18441,2.11667 -0.009,0.70935 -0.1008,1.14432 -0.18415,1.85208 -0.0807,0.68316 -0.0508,1.16126 -0.0992,1.85209 -0.0921,1.31074 -0.36353,2.90935 -0.51911,4.23333 -0.81359,6.9252 -5.07312,14.34915 -8.84872,20.10833 -1.2909,1.96903 -3.73274,3.62797 -4.81198,5.5798 -0.9062,1.63909 -0.45746,3.95129 -1.99655,5.39274 -1.91346,1.79229 -4.73524,2.17646 -7.08342,3.06784 -2.37622,0.90197 -4.57756,2.42411 -6.61458,3.9206 -1.65577,1.21629 -3.55733,2.2852 -4.99957,3.75867 -1.66026,1.69624 -2.92312,3.85789 -5.31918,4.64873 -3.14008,1.03637 -7.03131,1.016 -10.31875,1.48458 -1.338,0.1905 -3.18506,0.46857 -4.49792,0.44317 -0.59399,-0.0114 -1.00489,-0.1061 -1.5875,-0.17462 -0.67257,-0.0796 -1.22317,-0.0746 -1.852085,-0.0757 -1.124744,-0.002 -2.830248,-0.0241 -3.96875,0.004 -4.924954,0.12065 -10.51904,1.67322 -15.610417,1.32556 -4.849019,-0.33126 -9.744869,-0.57256 -14.552083,-1.25386 -3.452813,-0.48975 -7.889611,-1.24937 -10.150211,-4.31298 -0.917575,-1.2438 -1.717146,-3.03053 -2.127779,-4.49394 -0.184944,-0.65882 -0.265377,-1.19592 -0.34634,-1.85209 -0.116681,-0.94826 -0.05318,-1.57003 -0.07964,-2.64583 -0.07355,-3.0099 -0.241036,-5.9727 -0.01958,-8.99583 0.04895,-0.66675 0.04657,-1.17343 0.135731,-1.85209 0.09022,-0.685 0.128058,-1.11231 0.15531,-1.85208 0.07567,-2.06005 0.800365,-3.98727 1.010179,-6.08542 0.104775,-1.04642 0.01085,-1.45203 0.120915,-2.38125 0.0762,-0.64585 0.149225,-1.20412 0.230188,-1.85208 0.192881,-1.5449 0.726016,-3.35518 1.459706,-4.7625 1.677987,-3.21866 6.546585,-4.80007 7.58825,-8.20208 0.482071,-1.57454 -2.436813,-4.72811 -3.053027,-6.35 -0.832115,-2.18996 -1.009915,-4.31007 -1.009121,-6.61459 7.94e-4,-2.35082 0.256381,-5.02973 1.463675,-7.14375 1.455473,-2.54873 3.862388,-4.1574 5.9436,-6.10923 3.283479,-3.079486 6.2103,-6.951664 10.848975,-8.038307 3.198813,-0.749565 6.637867,-0.93345 9.789584,-0.933715 2.175404,-2.64e-4 3.505729,0 5.55625,0 h 3.96875 c 8.94186,0 17.33286,0.806186 25.92917,3.323431 5.27023,1.54305 10.15365,-0.337343 15.08125,3.234532 2.98423,2.162969 5.63113,5.354639 8.20605,7.994129 2.76172,2.83077 6.28174,5.95206 7.57476,9.78958 0.34713,1.02976 0.86201,2.67229 0.86704,3.70417 0.004,0.78025 -0.16166,1.26656 -0.22014,2.11666 -0.0556,0.81386 0.004,1.2827 -0.0339,2.11667 -0.077,1.6936 -0.75221,3.59807 -1.14036,5.29167 -1.84335,8.04386 -5.05354,14.10573 -10.04649,20.6375 -1.34832,1.76397 -1.32424,4.23703 -2.85459,5.77479 -4.02881,4.04839 -9.19692,4.86939 -13.72949,7.91713 -3.50626,2.3577 -5.76025,6.33465 -9.78959,8.03672 -1.92087,0.81148 -4.03648,1.02473 -6.08541,1.02552 -0.75883,2.7e-4 -1.397,-0.009 -2.11667,0.0757 -0.66543,0.0783 -1.16099,0.15505 -1.85208,0.18892 -2.99588,0.14684 -5.82243,0.43603 -8.731257,0.86571 -1.125537,0.16616 -2.286794,0.42519 -3.439583,0.45323 -2.430463,0.0595 -4.967552,0.004 -7.408334,0.004 -4.436533,0 -9.078648,0.33047 -13.49375,-0.0246 -2.010039,-0.16166 -3.231885,-1.12263 -5.291667,-1.2745 -3.460485,-0.25506 -7.315993,-0.18468 -10.215562,-2.83819 -1.594644,-1.4597 -1.8796,-5.20911 -1.96559,-6.97521 -0.10451,-2.15185 -0.265377,-3.4626 -0.254,-5.82083 0.01455,-3.0181 0.629444,-5.30278 0.783167,-8.46667 0.03413,-0.7022 0.03493,-1.18401 0.122502,-1.85208 0.08758,-0.66622 0.130175,-1.15993 0.15531,-1.85208 0.08917,-2.44978 0.655109,-5.40332 1.66714,-7.67292 0.836877,-1.87643 1.591998,-3.95975 2.914915,-5.55599 0.9525,-1.14935 2.525448,-2.03464 3.084512,-3.4409 1.204648,-3.03001 -2.51116,-6.73074 -2.551642,-9.78853 -0.02752,-2.10344 0.846138,-4.10712 1.496484,-6.08541 0.621771,-1.89045 0.614098,-4.08147 1.611312,-5.82084 0.979488,-1.70841 2.779713,-2.73764 4.209786,-4.01479 3.785658,-3.380051 7.770019,-7.459133 12.964583,-8.080374 1.180836,-0.141288 2.225411,-0.02725 3.439584,-0.08626 1.030023,-0.05001 1.870604,-0.430741 2.910416,-0.490008 2.369344,-0.135202 4.760384,-0.03228 7.143751,-0.02858 8.891853,0.01429 17.556163,3.275806 26.193753,4.905375 1.33509,0.251884 2.52227,0.312738 3.70417,0.431006 1.54225,0.154261 3.15939,0.401381 4.7625,0.474141 0.70829,0.032 1.17739,0.003 1.85208,0.086 1.55284,0.19076 3.45308,0.48471 4.7625,1.57136 4.37462,3.62982 9.80572,8.78628 11.7893,14.22797 0.79296,2.17566 0.92155,4.60031 0.91043,6.87916 -0.0106,2.21139 -0.5027,3.44382 -0.52784,5.55625 -0.0265,2.22118 -0.50985,5.67664 -1.23693,7.9375 -1.51288,4.70615 -3.792,7.65387 -6.53097,11.64167 -1.07553,1.5658 -1.29117,3.29247 -2.59794,4.7625 -3.30359,3.71554 -8.31983,5.8457 -12.65397,7.82241 -2.73896,1.24909 -4.15237,3.7592 -6.61458,5.37818 -2.74294,1.8034 -6.61194,3.04588 -9.78958,3.76238 -2.6887,0.60616 -5.95842,0.76438 -8.73125,0.38708 -1.72853,-0.23521 -3.308357,-0.59769 -5.02709,-0.29395 -1.226873,0.21669 -2.21615,0.59928 -3.439584,0.66066 -2.011362,0.10108 -4.361656,0.45191 -6.35,0.82921 -1.465527,0.27808 -2.765954,0.45005 -4.233333,0.51435 -0.935567,0.041 -1.486958,0.20479 -2.38125,0.24394 -1.715294,0.0752 -3.870325,0.11669 -5.55625,-0.14578 -3.301736,-0.51462 -9.068065,-0.72655 -11.191346,-3.81662 -1.785409,-2.59847 -2.566988,-7.08157 -2.566988,-10.05019 0,-1.01018 -0.04418,-1.70895 0.04498,-2.64584 0.09102,-0.95647 0.214048,-1.61157 0.21934,-2.64583 0.02196,-4.19656 0.591079,-10.01448 1.860021,-14.02292 1.275556,-4.0304 4.297892,-7.3152 4.707996,-11.64166 0.221985,-2.34368 -1.670579,-4.57042 -2.29235,-6.87917 -1.077913,-4.00235 0.486304,-9.23184 2.719917,-12.7 2.62546,-4.0767 9.101931,-7.18238 13.377598,-9.325774 1.875366,-0.940065 4.670528,-1.981761 6.107673,-2.064812 6.749786,0.132292 11.972364,0.838997 18.498576,2.223033 0.9734,0.206375 1.65471,-0.07567 2.64584,-0.08811 1.01573,-0.01244 1.71635,0.128323 2.64583,0.359039 1.41261,0.350838 2.52756,0.694796 3.96875,0.937684 2.81252,0.47413 6.60929,2.21218 9.26042,2.42543 0.71278,0.0571 1.15808,0.15743 1.85208,0.22199 3.15039,0.29316 7.3705,1.1131 10.05417,3.0599 3.51313,2.54847 7.61179,7.12788 9.14426,11.24744 0.51435,1.38245 0.80407,3.12314 1.01838,4.49792 0.0878,0.56436 0.13759,0.99457 0.15214,1.5875 0.0196,0.79904 0.004,1.26815 0.004,2.11667 0,0.95805 0.0365,1.50918 -0.0236,2.38125 -0.0701,1.01441 -0.36089,2.39765 -0.50562,3.43958 -0.92181,6.63522 -3.85498,13.18339 -7.82029,18.52083 -3.19352,4.29869 -8.84529,6.9813 -13.34638,9.64459 -4.58972,2.71569 -9.28714,7.54354 -14.55208,8.6106 -0.66252,0.13441 -1.17369,0.22517 -1.85208,0.25533 -0.78026,0.0344 -1.30519,0.0103 -2.11667,0.0103 h -5.02708 c -3.179768,0 -7.530047,-0.14843 -10.583339,0.38735 -2.034381,0.35692 -3.762904,0.93477 -5.820834,0.93556 -1.473729,5.3e-4 -3.587485,-0.0632 -4.7625,0.0757 -1.345935,0.15875 -2.16191,0.20638 -3.704166,0.18786 -0.770732,-0.009 -1.388005,-0.0868 -2.116667,-0.19182 -1.730904,-0.24951 -4.368271,-0.60087 -6.07404,-1.28853 -3.360737,-1.35546 -4.24471,-6.96621 -4.24471,-9.89568 0,-0.9054 -0.03863,-1.50204 0.04498,-2.38125 0.08731,-0.91678 0.202671,-1.42081 0.21881,-2.38125 0.01164,-0.70035 0.02328,-1.17686 0.112977,-1.85208 0.268023,-2.01639 0.693738,-4.27911 1.250686,-6.35 0.528108,-1.96321 0.730779,-3.8063 0.754856,-5.82083 0.04736,-3.9841 2.203979,-7.92454 2.823104,-11.64167 0.323321,-1.94046 -0.507206,-3.98357 -1.035579,-6.08542 -1.185069,-4.71434 1.385888,-10.46136 4.714611,-13.97794 4.242858,-4.4823 10.045171,-7.854943 15.986389,-8.587045 1.725348,-0.212461 2.856442,-0.482071 4.497917,-0.449792 1.021292,0.02011 1.653911,0.16219 2.645834,0.273844 3.897577,0.439208 7.577671,2.168783 11.377081,2.582863 1.29037,0.14049 2.88158,-0.57097 4.23334,-0.30136 3.62823,0.72363 7.09427,2.21615 10.58333,3.38957 3.75497,1.2626 7.4295,2.73765 11.1125,4.21111 1.94072,0.77629 4.29657,1.50971 5.73458,3.09378 2.48946,2.74214 3.53139,6.46562 3.52584,10.02956 -0.002,1.27502 -0.20188,2.24313 -0.25427,3.43958 -0.0352,0.80486 0.0159,1.28032 -0.0206,2.11667 -0.14234,3.24908 -1.21152,6.14785 -1.79652,9.26041 -0.33311,1.77139 -0.44741,3.66686 -1.34302,5.29167 -3.6576,6.63548 -9.6983,10.35897 -15.63555,14.66453 -3.11441,2.25848 -6.16744,4.98978 -9.78959,6.38016 -4.83658,1.85685 -9.44721,1.97221 -14.552081,1.97406 -2.18784,7.9e-4 -4.737894,0.20002 -6.614584,0.508 -1.40626,0.23072 -2.851679,0.48048 -4.233333,0.90487 -1.90844,0.58632 -4.380442,0.98822 -6.35,0.96335 -1.122098,-0.014 -1.754188,-0.22727 -2.910417,-0.25558 -1.191419,-0.0294 -1.842029,0.0833 -2.910417,-0.09 -3.052762,-0.49504 -5.373423,-1.62507 -7.331604,-4.14735 -1.574535,-2.02829 -1.400704,-4.1701 -1.399646,-6.61458 7.94e-4,-2.27251 0.347663,-4.69583 0.64135,-6.87917 0.140758,-1.04563 0.261408,-2.04311 0.416983,-3.175 0.258763,-1.88489 1.049073,-5.48666 1.247246,-7.14375 0.30189,-2.5228 -0.293952,-5.3594 0.252677,-7.9375 0.359569,-1.69545 1.348317,-3.32025 1.550194,-5.02708 0.216958,-1.8333 -1.104371,-3.23506 -1.185598,-5.02708 -0.04471,-0.9869 0.170127,-1.94363 0.418836,-2.91042 0.759618,-2.95487 2.262716,-6.09468 4.190471,-8.46667 2.485231,-3.05832 4.829439,-4.68736 8.342841,-6.28888 1.11813,-0.50985 2.539207,-1.18613 3.704167,-1.38007 0.976048,-0.16219 1.557073,-0.26643 2.645833,-0.26643 1.373188,0 2.1082,0.24606 3.439584,0.26141 1.969294,0.0228 4.139935,-0.18653 6.085417,0.11721 2.104491,0.32861 3.989121,1.17686 6.085421,1.42637 2.29473,0.27331 4.67783,-0.0524 6.87916,0.51091 1.04775,0.26802 1.90156,0.69585 2.91042,1.00647 2.99164,0.92102 5.67161,1.98464 8.46667,3.25517 1.56474,0.7112 3.62267,0.5805 5.29166,1.03055 2.50614,0.67601 6.25264,3.78778 7.76579,5.88751 1.18295,1.64148 1.55681,4.46167 2.0439,6.34603 0.25771,0.99616 0.24395,1.80393 0.24448,2.91042 7.9e-4,2.3667 -0.17939,3.52822 -0.4535,5.82083 -0.31512,2.63446 0.0156,5.3975 -0.99615,7.9375 -1.2872,3.23109 -4.69609,8.66325 -7.30938,10.97651 -5.92217,5.24272 -13.94645,8.91302 -21.40347,11.29982 -2.1045,0.67363 -3.91822,2.00713 -6.08542,2.06111 -1.3208,0.0328 -1.96929,-0.23945 -3.174998,-0.23945 -2.05449,0 -3.9878,0.44291 -6.35,0.51223 -2.470415,0.0728 -5.040048,1.21708 -7.408334,1.6047 -0.861748,0.14102 -1.479814,0.23177 -2.38125,0.24236 -1.050131,0.0124 -1.652058,0.0728 -2.645833,-0.0476 -2.754313,-0.33443 -6.597386,-2.21668 -8.326702,-4.4495 -3.5687,-4.60798 -1.782763,-9.69962 -1.086115,-14.8164 0.167481,-1.2311 0.1524,-2.33442 0.1524,-3.70416 0,-1.54993 -5.29e-4,-3.52716 0,-5.02709 2.65e-4,-0.67548 -0.01984,-1.17051 0.04498,-1.85208 0.06694,-0.70432 0.156898,-1.14829 0.219604,-1.85208 0.192088,-2.15371 1.582473,-3.47716 1.995488,-5.55625 0.269081,-1.35282 -0.495565,-3.10039 -0.332317,-4.49792 0.500063,-4.28255 2.678907,-9.75307 5.793846,-12.91855 3.062817,-3.11229 7.333986,-5.33797 11.592984,-5.3377 0.868891,0 1.581679,-0.0188 2.38125,0.0757 0.808037,0.0953 1.501775,0.18441 2.38125,0.18865 3.151187,0.0153 6.762747,-0.12012 9.789587,0.56118 1.69862,0.38206 3.57848,0.74004 5.29166,0.76094 0.78581,0.01 1.37557,-0.0111 2.11667,0.0767 0.66463,0.0786 1.15014,0.11721 1.85208,0.2413 2.85433,0.50535 5.31548,3.00196 7.9375,4.16216 1.78832,0.79137 3.75365,0.40137 5.55625,1.11601 1.70948,0.67787 2.41433,2.41988 3.72878,3.565 1.00806,0.87815 2.31457,1.33482 3.05435,2.50613 0.79295,1.25624 0.88741,2.52069 0.88979,3.94415 0.004,2.28864 -0.15822,4.68577 -0.25427,6.87916 -0.10345,2.36458 0.0796,4.60719 -0.72442,6.87917 -1.30678,3.692 -3.90869,9.30381 -6.95881,11.78242 -6.22009,5.05513 -13.67049,7.85786 -21.16667,10.29044 -1.74969,0.5678 -3.10965,2.06693 -4.7625,2.73844 -2.292876,0.93186 -4.850339,-0.37915 -7.143747,-0.16007 -1.544109,0.14737 -3.682471,0.96388 -5.291667,1.19856 -1.67296,0.24395 -3.361002,0.34661 -5.027083,0.34396 -0.876829,-0.001 -1.565805,0.0339 -2.38125,-0.21167 -1.806575,-0.54425 -4.034896,-2.25345 -5.180807,-3.75814 -1.35546,-1.77959 -1.891771,-5.14853 -2.151062,-7.14269 -0.07699,-0.59373 -0.05741,-0.98372 -0.08678,-1.5875 -0.03043,-0.62548 -0.108214,-0.99034 -0.178593,-1.5875 -0.122502,-1.0369 -0.06271,-1.73011 -0.07673,-2.91042 -0.01455,-1.21682 -0.228071,-1.88304 -0.259557,-3.175 -0.0291,-1.18427 -0.06773,-2.82892 0.04101,-3.96875 0.0852,-0.89429 0.144727,-1.39118 0.297921,-2.38125 0.370152,-2.39051 2.055812,-4.30503 2.453745,-6.61458 0.232305,-1.34832 -0.378089,-2.53286 -0.346868,-3.70417 0.01826,-0.68342 0.122766,-1.16999 0.23442,-1.85208 0.402696,-2.45877 0.859632,-5.47952 2.171436,-7.67292 1.6764,-2.80352 5.501481,-5.11069 8.373533,-6.54314 0.931069,-0.46435 2.210859,-1.01071 3.175,-1.03611 0.778405,-0.0204 1.307571,0.14737 2.116667,0.16695 2.118519,0.0519 4.249738,0.16616 6.35,0.25823 1.984902,0.0868 4.059502,0.0103 6.085412,0.0103 h 4.23334 c 0.6858,0 1.16443,-0.0246 1.85208,0.0236 0.69294,0.0487 1.43351,0.17568 2.11667,0.37174 1.91293,0.54875 2.98661,2.37993 4.7625,3.19855 4.71196,2.17249 11.60224,3.08874 14.68887,8.05815 1.73196,2.78844 0.3982,5.78326 0.39238,8.72093 -0.002,1.03293 -0.0101,1.70762 -0.15611,2.64583 -0.58737,3.76952 -2.47068,8.81777 -4.9948,11.90519 -5.2332,6.4008 -14.03059,9.49537 -21.57201,11.87768 -2.54582,0.80433 -4.76673,2.87152 -7.408332,3.1586 -1.321594,0.14393 -2.434696,0.046 -3.96875,0.046 -2.754577,2.7e-4 -5.031052,1.02024 -7.672917,1.05331 -2.890043,0.0365 -6.946106,-1.73434 -8.665368,-4.23863 -1.595967,-2.32489 -1.481138,-5.72717 -1.805782,-8.19176 -0.105039,-0.79745 -0.09446,-1.29223 -0.116152,-2.11667 -0.03334,-1.27741 -0.253471,-1.98411 -0.26035,-3.43958 -0.01085,-2.25769 -0.0336,-4.04654 0.383381,-6.08542 0.504296,-2.46618 2.36273,-4.495 2.734734,-6.87916 0.356394,-2.28256 -0.116152,-3.74518 0.132291,-5.82084 0.166688,-1.39435 0.564357,-3.41259 1.448594,-4.7625 2.405592,-3.67294 7.276307,-6.58257 11.440319,-7.72954 3.132667,-0.86307 6.19469,0.19236 9.260412,0.33153 0.88106,0.0402 1.3126,0.17436 2.11667,0.23071 1.46394,0.1024 3.30332,0.19368 4.7625,0.33311 0.6895,0.0659 1.18057,0.1786 1.85208,0.20929 0.89456,0.0405 1.79546,-0.002 2.64584,0.31009 1.70709,0.62759 2.25319,2.54873 3.73829,3.20913 0.86863,0.38603 1.95395,0.35269 2.87629,0.65829 4.13491,1.36948 9.08288,3.68088 11.10509,7.73906 0.48525,0.97367 0.1868,1.7653 0.0831,2.64583 -0.0923,0.78238 -0.0659,1.2446 -0.0767,2.11667 -0.01,0.78211 -0.0907,1.32371 -0.18812,2.11667 -0.45164,3.67638 -1.54173,8.60504 -4.16798,11.61785 -1.39515,1.6002 -3.41789,2.50772 -5.16784,3.64728 -4.17036,2.71595 -8.41904,5.21653 -13.22917,6.68496 -2.02512,0.61807 -4.11824,0.62786 -6.08541,1.45601 -1.44225,0.60721 -2.723358,1.77006 -4.233335,2.11851 -1.652588,0.38127 -2.566988,0.0495 -3.96875,0.21564 -1.765829,0.20902 -3.68009,0.6895 -5.55625,0.71305 -2.425436,0.0307 -5.485607,-0.71728 -6.957748,-2.90645 -1.444096,-2.14709 -1.81319,-5.80548 -2.186517,-8.20102 -0.303477,-1.94733 -0.126206,-3.66686 -0.115887,-5.82083 0.01693,-3.51579 2.422789,-6.54394 2.861204,-10.05417 0.248708,-1.99178 0.213518,-4.32276 0.775229,-6.35 0.997215,-3.59807 2.508779,-6.58918 5.888302,-8.60372 4.022196,-2.39766 10.03644,-1.71503 14.552082,-1.71503 1.02949,0 1.72349,-0.0429 2.64583,0.045 1.32847,0.12647 2.67785,0.40269 3.96875,0.47466 0.88159,0.0492 1.79335,0.10663 2.64584,0.42201 2.32859,0.86175 4.21375,2.88105 6.35,4.11824 3.00566,1.74069 7.11544,2.64001 9.06409,5.78803 0.87286,1.41022 0.48975,2.85406 0.30851,4.23333 -0.14896,1.13533 -0.0333,2.15635 -0.13679,3.43958 -0.21617,2.67388 -1.86585,5.51074 -3.44541,7.67292 -6.44578,8.82227 -16.51159,10.61958 -26.427902,13.7078 -3.067579,0.95514 -5.792787,1.1295 -8.995833,1.1086 -2.304786,-0.0148 -4.493154,-1.53987 -5.859463,-3.46287 -1.097492,-1.54463 -1.303337,-4.59792 -1.27,-6.32645 0.02222,-1.15728 0.236008,-1.79467 0.249238,-2.91041 0.01667,-1.40282 -0.07885,-2.1934 0.11721,-3.43959 0.307181,-1.95236 1.340644,-3.89281 1.976702,-5.82083 1.303602,-3.95102 1.208617,-11.08075 4.601369,-14.14754 1.795463,-1.62295 5.045604,-2.15662 7.328694,-2.54211 1.909762,-0.32279 3.472921,-0.50827 5.291665,-0.50827 1.54225,0 2.77124,0.0907 4.23333,0.32967 3.11521,0.50906 6.16003,1.04326 8.98552,2.69029 1.52162,0.88688 2.56354,2.55111 3.97907,3.62108 1.93145,1.45997 4.74636,1.7698 6.08409,3.94335 2.15265,3.49806 -0.32332,8.54684 -2.16853,11.64061 -5.17789,8.68151 -14.94419,11.87212 -24.288478,13.51598 -2.14339,0.37703 -3.865563,0.77232 -6.085417,0.77152 -2.560373,-0.001 -4.79769,-0.37782 -6.402917,-2.64689 -1.434042,-2.02724 -1.27,-4.24788 -1.27,-6.61352 0,-1.08321 -0.02461,-1.94707 0.113242,-2.91042 0.597958,-4.17592 2.021152,-8.60584 3.318668,-12.7 0.715698,-2.25796 1.078971,-5.77347 3.194051,-7.21572 0.973402,-0.66384 2.351087,-0.753 3.428206,-0.99007 1.148027,-0.25268 2.550319,-0.67204 3.704167,-0.80327 0.99695,-0.11351 1.532202,-0.23892 2.645828,-0.2503 1.38827,-0.0143 2.17276,0.12197 3.43959,0.29792 2.95036,0.41011 7.12284,0.7829 9.78852,2.57281 1.23005,0.82603 1.89098,2.1418 2.95751,3.12658 1.54967,1.43166 4.24022,2.10688 5.23822,4.05977 0.53552,1.04748 0.1958,1.6883 0.0831,2.64186 -0.0696,0.58605 -0.0542,1.0123 -0.0992,1.5875 -0.18388,2.34977 -1.45388,5.03529 -3.00328,6.87917 -4.45109,5.29696 -11.42127,7.98645 -17.87525,9.99569 -1.363132,0.42439 -2.360346,0.32306 -3.704165,0.32306 h -2.645833 c -2.610644,0 -5.501746,0.14922 -7.24879,-2.4048 -0.573352,-0.8382 -0.650346,-2.82363 -0.698236,-3.68062 -0.05027,-0.9062 -0.201083,-1.37874 -0.244739,-2.38125 -0.05768,-1.32953 0.09075,-2.46618 0.323321,-3.70416 0.381264,-2.02962 1.683808,-3.8063 2.001573,-5.82084 0.635793,-4.02881 1.647825,-8.23648 5.337704,-10.67911 1.889919,-1.25095 4.039129,-0.43656 6.085415,-0.43339 3.89572,0.006 10.11687,0.82312 13.48317,3.10304 1.09564,0.74189 1.56977,2.0148 2.44739,2.95777 1.10464,1.18692 2.50719,1.93569 3.23242,3.46419 1.32265,2.78712 -1.61343,7.7978 -3.55653,9.78959 -3.81344,3.90948 -10.43835,7.15327 -15.87103,7.86103 -1.0713,0.13944 -1.766096,0.077 -2.910418,0.0765 -1.003565,-2.7e-4 -1.713707,0.0243 -2.645834,-0.19818 -1.611048,-0.3847 -3.806296,-0.76279 -4.85431,-2.19472 -0.863865,-1.18004 -0.704321,-2.5437 -0.70194,-3.9571 0.0053,-3.26708 0.819415,-5.99679 2.1717,-8.99584 1.649148,-3.65707 0.989542,-6.37593 4.442884,-9.20009 1.144322,-0.93557 2.27965,-0.85619 3.704166,-0.85407 3.312052,0.005 6.285972,1.261 9.525002,2.02776 1.67931,0.39741 3.42714,0.61701 4.65931,1.98993 1.28164,1.42849 3.38137,4.37013 3.46895,6.30106 0.28125,6.19336 -6.97336,10.02215 -11.83243,11.91656 -2.3831,0.92896 -4.5982,1.04828 -7.143748,1.04802 -1.452563,0 -2.749815,0.10213 -3.89308,-0.898 -1.467908,-1.28428 -2.182283,-2.51222 -2.192073,-4.39367 -0.01349,-2.59794 0.752211,-4.93924 1.563423,-7.40833 0.73713,-2.24261 0.255588,-4.71011 2.168261,-6.56564 1.302544,-1.26338 2.774156,-1.62322 4.470137,-1.63512 2.05872,-0.0148 3.82905,0.89985 5.82083,1.44357 2.19869,0.60007 4.5802,0.71702 6.2394,2.58021 5.66817,6.36535 -3.28533,12.93839 -8.88523,14.53277 -2.10371,0.59902 -4.948239,1.52003 -6.822548,-0.1479 -1.68222,-1.49701 -1.403614,-3.93938 -1.378479,-5.97456 0.03281,-2.68208 1.448329,-7.7843 3.96875,-9.23687 1.358367,-0.78263 2.945607,-0.55509 4.496857,-0.55271 1.93199,0.003 4.20529,0.41063 5.80919,1.69836 1.00145,0.80407 1.28932,1.98676 1.44595,3.06414 0.11218,0.77338 0.15425,1.26788 0.15266,2.11667 -0.002,1.28693 -0.23389,2.18678 -1.10781,3.17103 -2.43602,2.7432 -7.80468,5.76553 -11.31543,3.44487 -1.321858,-0.87365 -1.738842,-2.77654 -1.838061,-4.23465 -0.318822,-4.68154 4.740011,-9.29588 9.234751,-7.2988 1.40811,0.62548 2.75167,1.50601 2.89507,3.06546 0.0646,0.70009 0.0476,1.17819 0.12673,1.85209 0.25162,2.1463 -1.3208,3.26998 -3.0218,4.40399 -1.22317,0.81544 -2.49978,1.60125 -3.96875,1.3163 -3.425823,-0.66464 -3.774015,-4.45426 -1.907909,-7.04215 0.805649,-1.11707 2.144979,-2.2188 3.495409,-2.27992 1.8923,-0.086 3.60918,1.2663 3.6912,3.07261 0.0733,1.61237 -0.73369,3.01175 -2.36855,3.72057 -1.21497,0.52679 -3.0226,0.50377 -3.54039,-0.83899 -0.37438,-0.97076 0.17489,-2.28865 0.95435,-2.93344 2.29209,-1.89627 3.91451,0.88874 0.99881,1.90394"
       id="path2778"
       sodipodi:nodetypes="cccccccccccscccccccccccsccscscccccscscsccccccccsccccccccccscccccccccccsssccsscccccccsccsccccccccccssccccccccccscscccccsccscccccccsccccccssccsccccccccccccccccccccccccccsccccsscccscccccccccccccsccsccccssccccccscccccsssccsscccsscccccccscccccscccccccccccccsccsscccsscccccccccccccsccsscccsccsscsccccscccccccscsccscccsccccscsccccccccccccsccccscccccccscccccscscsccccssccccccccccccccccccccsccsccccscccccscccscccsscccsccccccccscccccccccscccccccsccccccccscccsscccsccccccsccscscsccscscccscccscccccccccssssccsccccsccccccccccccccccsccccccscccsccccccccsccccsccc" /></g></svg>
